<svg width="40" height="40" viewBox="0 0 40 40" fill="none" xmlns="http://www.w3.org/2000/svg">
<mask id="mask0_3498_164802" style="mask-type:alpha" maskUnits="userSpaceOnUse" x="0" y="0" width="40" height="40">
<rect width="40" height="40" fill="#D9D9D9"/>
</mask>
<g mask="url(#mask0_3498_164802)">
<path d="M19.999 37.541C17.5824 37.541 15.3047 37.0827 13.166 36.166C11.0267 35.2494 9.16536 33.9994 7.58203 32.416C5.9987 30.8327 4.7487 28.9714 3.83203 26.832C2.91536 24.6934 2.45703 22.4157 2.45703 19.999C2.45703 17.5824 2.91536 15.3047 3.83203 13.166C4.7487 11.0267 6.0057 9.1587 7.60303 7.56203C9.20036 5.9647 11.0617 4.7147 13.187 3.81203C15.3117 2.9087 17.5824 2.45703 19.999 2.45703C22.4157 2.45703 24.7004 2.9087 26.853 3.81203C29.0057 4.7147 30.8737 5.9647 32.457 7.56203C34.0404 9.1587 35.2837 11.0267 36.187 13.166C37.0897 15.3047 37.541 17.5824 37.541 19.999C37.541 22.4157 37.0897 24.6864 36.187 26.811C35.2837 28.9364 34.0337 30.7977 32.437 32.395C30.8397 33.9924 28.9714 35.2494 26.832 36.166C24.6934 37.0827 22.4157 37.541 19.999 37.541ZM19.999 34.041C23.9157 34.041 27.235 32.673 29.957 29.937C32.6797 27.2004 34.041 23.8877 34.041 19.999C34.041 16.0824 32.6797 12.763 29.957 10.041C27.235 7.31836 23.9157 5.95703 19.999 5.95703C16.1104 5.95703 12.7977 7.31836 10.061 10.041C7.32503 12.763 5.95703 16.0824 5.95703 19.999C5.95703 23.8877 7.32503 27.2004 10.061 29.937C12.7977 32.673 16.1104 34.041 19.999 34.041Z" fill="#1C1B1F"/>
</g>
</svg>
