<svg width="40" height="40" viewBox="0 0 40 40" fill="none" xmlns="http://www.w3.org/2000/svg">
<mask id="mask0_3498_164794" style="mask-type:alpha" maskUnits="userSpaceOnUse" x="0" y="0" width="40" height="40">
<rect width="40" height="40" fill="#D9D9D9"/>
</mask>
<g mask="url(#mask0_3498_164794)">
<path d="M20.001 27.041C22.1956 27.041 24.0566 26.277 25.584 24.749C27.112 23.221 27.876 21.36 27.876 19.166C27.876 16.9714 27.112 15.11 25.584 13.582C24.0566 12.0547 22.1956 11.291 20.001 11.291C17.8063 11.291 15.9453 12.0547 14.418 13.582C12.89 15.11 12.126 16.9714 12.126 19.166C12.126 21.36 12.89 23.221 14.418 24.749C15.9453 26.277 17.8063 27.041 20.001 27.041ZM20.001 23.832C18.6956 23.832 17.5916 23.3737 16.689 22.457C15.7856 21.5404 15.334 20.4434 15.334 19.166C15.334 17.86 15.7923 16.7557 16.709 15.853C17.6256 14.9504 18.723 14.499 20.001 14.499C21.3063 14.499 22.4103 14.9574 23.313 15.874C24.2163 16.7907 24.668 17.888 24.668 19.166C24.668 20.4714 24.2096 21.5754 23.293 22.478C22.3763 23.3807 21.279 23.832 20.001 23.832ZM20.001 32.499C15.6956 32.499 11.7996 31.2767 8.31297 28.832C4.82697 26.388 2.27864 23.166 0.667969 19.166C2.27864 15.166 4.82697 11.9437 8.31297 9.49903C11.7996 7.05436 15.6956 5.83203 20.001 5.83203C24.3063 5.83203 28.2023 7.05436 31.689 9.49903C35.175 11.9437 37.7233 15.166 39.334 19.166C37.7233 23.166 35.175 26.388 31.689 28.832C28.2023 31.2767 24.3063 32.499 20.001 32.499ZM20.001 28.999C23.3343 28.999 26.397 28.11 29.189 26.332C31.9803 24.5547 34.112 22.166 35.584 19.166C34.112 16.166 31.987 13.777 29.209 11.999C26.4316 10.221 23.3623 9.33203 20.001 9.33203C16.6676 9.33203 13.605 10.221 10.813 11.999C8.02164 13.777 5.87597 16.166 4.37597 19.166C5.87597 22.166 8.01497 24.5547 10.793 26.332C13.5703 28.11 16.6396 28.999 20.001 28.999Z" fill="#1C1B1F"/>
</g>
</svg>
